<svg xmlns="http://www.w3.org/2000/svg" xmlns:xlink="http://www.w3.org/1999/xlink" width="96" height="32" version="1.1" viewBox="0 0 96 32"><title>Group</title><desc>Created with Sketch.</desc><defs><polygon id="path-1" points=".001 0 32 0 32 32 .001 32"/><polygon id="path-3" points=".001 0 32 0 32 32 .001 32"/><polygon id="path-5" points=".001 0 32 0 32 32 .001 32"/></defs><g id="Page-1" fill="none" fill-rule="evenodd" stroke="none" stroke-width="1"><g id="Group"><g id="Group-8"><path id="Fill-1" fill="#2A2A2A" d="M15.4753,18.6904 L8.7173,12.5124 L8.7173,20.4494 L23.2833,20.4494 L23.2833,12.5154 L16.5263,18.6894 C16.2403,18.9514 15.7643,18.9534 15.4753,18.6904"/><polygon id="Fill-3" fill="#2A2A2A" points="22.028 11.551 9.976 11.551 16 17.058"/><g id="Group-7"><mask id="mask-2" fill="#fff"><use xlink:href="#path-1"/></mask><path id="Fill-5" fill="#2A2A2A" d="M24.8415,21.5078 C24.8415,21.7838 24.6175,22.0078 24.3415,22.0078 L7.6585,22.0078 C7.3825,22.0078 7.1585,21.7838 7.1585,21.5078 L7.1585,10.4918 C7.1585,10.2158 7.3825,9.9918 7.6585,9.9918 L24.3415,9.9918 C24.6175,9.9918 24.8415,10.2158 24.8415,10.4918 L24.8415,21.5078 Z M16.0005,-0.0002 C7.1635,-0.0002 0.0005,7.1638 0.0005,15.9998 C0.0005,24.8368 7.1635,31.9998 16.0005,31.9998 C24.8365,31.9998 31.9995,24.8368 31.9995,15.9998 C31.9995,7.1638 24.8365,-0.0002 16.0005,-0.0002 Z" mask="url(#mask-2)"/></g></g><g id="Group-8-Copy" transform="translate(32.000000, 0.000000)"><path id="Fill-1" fill="#6350FD" d="M15.4753,18.6904 L8.7173,12.5124 L8.7173,20.4494 L23.2833,20.4494 L23.2833,12.5154 L16.5263,18.6894 C16.2403,18.9514 15.7643,18.9534 15.4753,18.6904"/><polygon id="Fill-3" fill="#6350FD" points="22.028 11.551 9.976 11.551 16 17.058"/><g id="Group-7"><mask id="mask-4" fill="#fff"><use xlink:href="#path-3"/></mask><path id="Fill-5" fill="#6350FD" d="M24.8415,21.5078 C24.8415,21.7838 24.6175,22.0078 24.3415,22.0078 L7.6585,22.0078 C7.3825,22.0078 7.1585,21.7838 7.1585,21.5078 L7.1585,10.4918 C7.1585,10.2158 7.3825,9.9918 7.6585,9.9918 L24.3415,9.9918 C24.6175,9.9918 24.8415,10.2158 24.8415,10.4918 L24.8415,21.5078 Z M16.0005,-0.0002 C7.1635,-0.0002 0.0005,7.1638 0.0005,15.9998 C0.0005,24.8368 7.1635,31.9998 16.0005,31.9998 C24.8365,31.9998 31.9995,24.8368 31.9995,15.9998 C31.9995,7.1638 24.8365,-0.0002 16.0005,-0.0002 Z" mask="url(#mask-4)"/></g></g><g id="Group-8-Copy-2" transform="translate(64.000000, 0.000000)"><path id="Fill-1" fill="#FFF" d="M15.4753,18.6904 L8.7173,12.5124 L8.7173,20.4494 L23.2833,20.4494 L23.2833,12.5154 L16.5263,18.6894 C16.2403,18.9514 15.7643,18.9534 15.4753,18.6904"/><polygon id="Fill-3" fill="#FFF" points="22.028 11.551 9.976 11.551 16 17.058"/><g id="Group-7"><mask id="mask-6" fill="#fff"><use xlink:href="#path-5"/></mask><path id="Fill-5" fill="#FFF" d="M24.8415,21.5078 C24.8415,21.7838 24.6175,22.0078 24.3415,22.0078 L7.6585,22.0078 C7.3825,22.0078 7.1585,21.7838 7.1585,21.5078 L7.1585,10.4918 C7.1585,10.2158 7.3825,9.9918 7.6585,9.9918 L24.3415,9.9918 C24.6175,9.9918 24.8415,10.2158 24.8415,10.4918 L24.8415,21.5078 Z M16.0005,-0.0002 C7.1635,-0.0002 0.0005,7.1638 0.0005,15.9998 C0.0005,24.8368 7.1635,31.9998 16.0005,31.9998 C24.8365,31.9998 31.9995,24.8368 31.9995,15.9998 C31.9995,7.1638 24.8365,-0.0002 16.0005,-0.0002 Z" mask="url(#mask-6)"/></g></g></g></g></svg>