<svg xmlns="http://www.w3.org/2000/svg" xmlns:xlink="http://www.w3.org/1999/xlink" id="Layer_1" x="0" y="0" enable-background="new 0 0 32 45.524" version="1.1" viewBox="0 0 32 45.524" xml:space="preserve"><g><g><g><rect width="43.422" height="5" x="657.184" y="17.17" fill="#4371B8"/><rect width="43.424" height="5" x="657.182" y="26.44" fill="#4371B8"/><rect width="43.433" height="5" x="657.173" y="35.71" fill="#4371B8"/><rect width="43.431" height="5" x="657.175" y="44.979" fill="#4371B8"/></g><g><defs><rect id="SVGID_1_" width="51.266" height="73.086" x="656.918" y="-13.838"/></defs><clipPath id="SVGID_2_"><use overflow="visible" xlink:href="#SVGID_1_"/></clipPath><g clip-path="url(#SVGID_2_)"><defs><rect id="SVGID_3_" width="52" height="74" x="656.184" y="-14.624"/></defs><clipPath id="SVGID_4_"><use overflow="visible" xlink:href="#SVGID_3_"/></clipPath><path fill="#4371B8" d="M713.184,64.249h-61.266v-83.086h61.266V64.249z M661.918,54.249h41.266 V-8.838h-41.266V54.249z" clip-path="url(#SVGID_4_)"/></g></g><g><defs><rect id="SVGID_5_" width="51.266" height="73.086" x="656.918" y="-13.838"/></defs><clipPath id="SVGID_6_"><use overflow="visible" xlink:href="#SVGID_5_"/></clipPath><g clip-path="url(#SVGID_6_)"><g><g><defs><rect id="SVGID_7_" width="52" height="74" x="656.184" y="-14.624"/></defs><clipPath id="SVGID_8_"><use overflow="visible" xlink:href="#SVGID_7_"/></clipPath><g clip-path="url(#SVGID_8_)"><defs><rect id="SVGID_9_" width="51.266" height="73.086" x="656.918" y="-13.838"/></defs><clipPath id="SVGID_10_"><use overflow="visible" xlink:href="#SVGID_9_"/></clipPath><g clip-path="url(#SVGID_10_)"><defs><rect id="SVGID_11_" width="52" height="74" x="656.184" y="-14.624"/></defs><clipPath id="SVGID_12_"><use overflow="visible" xlink:href="#SVGID_11_"/></clipPath><path fill="#4371B8" d="M713.184,64.249h-61.266v-83.086h61.266V64.249z M661.918,54.249 h41.266V-8.838h-41.266V54.249z" clip-path="url(#SVGID_12_)"/></g></g><g clip-path="url(#SVGID_8_)"><defs><rect id="SVGID_13_" width="51.266" height="73.086" x="675.43" y="-32.377"/></defs><clipPath id="SVGID_14_"><use overflow="visible" xlink:href="#SVGID_13_"/></clipPath><g clip-path="url(#SVGID_14_)"><defs><rect id="SVGID_15_" width="52" height="74" x="656.184" y="-14.624"/></defs><clipPath id="SVGID_16_"><use overflow="visible" xlink:href="#SVGID_15_"/></clipPath><path fill="#4371B8" d="M731.696,45.71h-61.266v-83.086h61.266V45.71z M680.431,35.71h41.266 v-63.086h-41.266V35.71z" clip-path="url(#SVGID_16_)"/></g></g><g clip-path="url(#SVGID_8_)"><defs><rect id="SVGID_17_" width="51.266" height="73.086" x="684.687" y="-41.646"/></defs><clipPath id="SVGID_18_"><use overflow="visible" xlink:href="#SVGID_17_"/></clipPath><g clip-path="url(#SVGID_18_)"><defs><rect id="SVGID_19_" width="52" height="74" x="656.184" y="-14.624"/></defs><clipPath id="SVGID_20_"><use overflow="visible" xlink:href="#SVGID_19_"/></clipPath><path fill="#4371B8" d="M740.952,36.44h-61.265v-83.086h61.265V36.44z M689.687,26.44h41.265 v-63.086h-41.265V26.44z" clip-path="url(#SVGID_20_)"/></g></g><g clip-path="url(#SVGID_8_)"><defs><rect id="SVGID_21_" width="51.266" height="73.086" x="693.943" y="-50.916"/></defs><clipPath id="SVGID_22_"><use overflow="visible" xlink:href="#SVGID_21_"/></clipPath><g clip-path="url(#SVGID_22_)"><defs><rect id="SVGID_23_" width="52" height="74" x="656.184" y="-14.624"/></defs><clipPath id="SVGID_24_"><use overflow="visible" xlink:href="#SVGID_23_"/></clipPath><path fill="#4371B8" d="M750.209,27.17h-61.266v-83.086h61.266V27.17z M698.943,17.17h41.266 v-63.086h-41.266V17.17z" clip-path="url(#SVGID_24_)"/></g></g><g clip-path="url(#SVGID_8_)"><defs><rect id="SVGID_25_" width="51.266" height="73.086" x="666.174" y="-23.107"/></defs><clipPath id="SVGID_26_"><use overflow="visible" xlink:href="#SVGID_25_"/></clipPath><g clip-path="url(#SVGID_26_)"><defs><rect id="SVGID_27_" width="52" height="74" x="656.184" y="-14.624"/></defs><clipPath id="SVGID_28_"><use overflow="visible" xlink:href="#SVGID_27_"/></clipPath><path fill="#4371B8" d="M722.439,54.979h-61.265v-83.086h61.265V54.979z M671.174,44.979 h41.265v-63.086h-41.265V44.979z" clip-path="url(#SVGID_28_)"/></g></g></g></g></g></g></g></g><g><rect width="51.248" height="5.007" x="743.052" y="26.429" fill="#ED1C24"/><g><rect width="5.007" height="73.086" x="743.052" y="-13.838" fill="#ED1C24"/><rect width="5.007" height="61.312" x="752.308" y="-13.838" fill="#ED1C24"/><rect width="5.007" height="50.865" x="761.563" y="-13.838" fill="#ED1C24"/><rect width="5.007" height="42.771" x="770.819" y="-13.838" fill="#ED1C24"/><rect width="5.007" height="33.5" x="780.075" y="-13.838" fill="#ED1C24"/><rect width="51.248" height="5.007" x="743.052" y="-13.815" fill="#ED1C24"/><rect width="51.248" height="5.007" x="743.052" y="17.159" fill="#ED1C24"/><rect width="51.248" height="5.007" x="743.052" y="35.7" fill="#ED1C24"/><rect width="51.248" height="5.007" x="743.052" y="44.971" fill="#ED1C24"/><rect width="51.248" height="5.007" x="743.052" y="54.242" fill="#ED1C24"/><rect width="5.007" height="73.04" x="789.293" y="-13.791" fill="#ED1C24"/></g></g><path fill="#FFF" d="M32-0.098L0-0.113v45.637h0h32h0V-0.098z M23.117,3.028v16.214h-2.653V3.028H23.117z M17.338,3.028v16.214	h-2.653V3.028H17.338z M14.685,25.031v-2.662h2.653v2.662H14.685z M8.906,30.82v-2.663h2.653v2.663H8.906z M3.126,36.608v-2.663	h2.653v2.663H3.126z M3.126,30.82v-2.663h2.653v2.663H3.126z M3.126,25.031v-2.662h2.653v2.662H3.126z M8.906,25.031v-2.662h2.653	v2.662H8.906z M11.559,3.028v16.214H8.906V3.028H11.559z M5.779,3.028v16.214H3.126V3.028H5.779z M28.873,42.397H3.126v-2.663	h25.747V42.397z M28.873,36.608H8.906v-2.663h19.968V36.608z M28.873,30.82H14.685v-2.663h14.188V30.82z M28.873,25.031h-8.409	v-2.662h8.409V25.031z M28.873,19.242h-2.63V3.028h2.63V19.242z"/></svg>